<svg xmlns="http://www.w3.org/2000/svg" class="logo" width="90" height="90" viewBox="0 0 60 55.94"><defs><style>.cls-1{fill:#febf48;}.cls-2,.cls-8{fill:#562d11;}.cls-2{stroke:#3d1414;stroke-miterlimit:1.5;stroke-width:0.15px;}.cls-3{fill:#8fc73e;}.cls-4{fill:#f26a3e;}.cls-5{fill:#f79444;}.cls-6{fill:#ffed92;}.cls-7{fill:#f78f43;}.cls-9{fill:#d4de25;}.cls-10{fill:#f47a40;}.cls-11{fill:#dc4c2c;}.cls-12{fill:#67942c;}.cls-13{fill:#191e2b;}</style></defs><g id="Camada_2" data-name="Camada 2"><g id="Camada_1-2" data-name="Camada 1"><g id="Camada_2-2" data-name="Camada 2"><g id="Camada_1-2-2" data-name="Camada 1-2"><g id="Camada_2-2-2" data-name="Camada 2-2"><g id="Object"><path class="cls-1" d="M50.41,14.74a16.07,16.07,0,0,0-15-10c-3.82,0-7.7.24-10.28.46a14.84,14.84,0,0,0-13,10.2l38-.67Z"/><path class="cls-1" d="M25.75,50.92c3.8.26,7.69.26,10.29.22a14.89,14.89,0,0,0,12.71-7.4L14.44,45.26A16.23,16.23,0,0,0,25.75,50.92Z"/><path class="cls-2" d="M49.31,35.26a1.09,1.09,0,0,0-.83.07l-2.91,1.53A7.91,7.91,0,0,1,38.4,37l-2.33-1.14a3.69,3.69,0,0,0-3.65.21L30.7,37.15a9.18,9.18,0,0,1-9.85.07l-2.46-1.55a4,4,0,0,0-1.77-.58l-.94,0a3.5,3.5,0,0,0-1,.3l-4.21,2a7.42,7.42,0,0,1-2,.61v.12a2.66,2.66,0,0,0,2.78,2.53l39.4-1.75a2.65,2.65,0,0,0,2.54-2.68,6.57,6.57,0,0,1-2-.34Z"/><path class="cls-3" d="M6.12,33a2.62,2.62,0,0,0,2.36.08l4.21-2a8.6,8.6,0,0,1,8.24.53l2.46,1.55a4.4,4.4,0,0,0,4.72,0L29.82,32a8.52,8.52,0,0,1,8.35-.49l2.33,1.15a3.17,3.17,0,0,0,2.86,0l2.91-1.53a5.85,5.85,0,0,1,4.53-.37l1.86.6a2,2,0,0,0,2-3.26,7.37,7.37,0,0,1-4.28,1.47L11,30.25h-.14A7.35,7.35,0,0,1,5.92,28.4c-.17.16-.33.33-.49.51a2.63,2.63,0,0,0,.17,3.71,2.68,2.68,0,0,0,.52.36Z"/><path class="cls-4" d="M10.86,25.5l39.45-.7a2.66,2.66,0,1,0-.1-5.31h0l-39.44.69a2.66,2.66,0,0,0,.09,5.32Z"/><path class="cls-5" d="M11.07,15.42c0-.5,2.13-7.79,13.3-8.81s10.77,4,16.84,5.66,2.44-3.38,2.44-3.38,6.92,1.65,7.55,5.35S10.83,17.94,11.07,15.42Z"/><path class="cls-5" d="M50.25,43.58c.18.15-10.08.71-13.54,3.31s1.73,2.83,1.73,2.83-7.94,3.39-14.79,2.44-11.56-7.55-11.56-7.55S48.36,42,50.25,43.58Z"/><path class="cls-6" d="M34.1,6.13a16.53,16.53,0,0,1,5.44,2.26c2.08,1.55,2.76.25.8-1.37S32.91,5.16,34.1,6.13Z"/><path class="cls-7" d="M51.46,18.85c-.3,0-27.66-.08-31.22,1.26s18.1,1.78,23.07,1.7-3.93,1.48-1.18,2.07,10.45,1.34,11.79-.15S53.39,18.62,51.46,18.85Z"/><path class="cls-8" d="M47.31,35.16c-.32.18-5.49,3.41-8.6,1.63s-4.15-2.52-5.42-1.7L31,36.57s3.41-1,5,.74,6.15,2.23,9.64,1.19,2.6.07,1.41,1.26,5.26,1.48,6.6-.52a4.81,4.81,0,0,0,.82-3.78S50.2,33.61,47.31,35.16Z"/><path class="cls-9" d="M53.91,28a2.29,2.29,0,0,1-1.85,2c-1.7.29-4.45-1.56-7.42.51s-4.52,2.15-5.86,1.86,2.3,3.85,5,2.15S48,32,51.09,32.71s6,.08,5.93-2.15S55.32,26,53.91,28Z"/><path class="cls-10" d="M49.12,14.42a.85.85,0,0,0-.49-.6A3.61,3.61,0,0,0,46,13.67a13.13,13.13,0,0,1-2.68.6c-1.25,0-2.44-.54-3.69-.62-.73-.05-1.46.07-2.19.06-3.49-.08-6.14-3.21-9.49-4.18-2.53-.73-5.23-.18-7.79.43a23,23,0,0,0-7.34,2.69l-1,1.29A1.67,1.67,0,0,0,10.57,16,2.19,2.19,0,0,0,12,17.31a6.35,6.35,0,0,0,1.94.25c6.63.11,13.27-.15,19.89-.44,3.92-.16,7.84-.32,11.76-.66,1.29-.11,2.78-.37,3.42-1.51A.88.88,0,0,0,49.12,14.42Z"/><path class="cls-11" d="M8.3,20.4s4.45-1.48,7.19,1.12,6,.81,8.76,1.92,8.75.61,10,1.49-4.53,1.26-4.53,1.26-18.76,1-20.84-.3S6.37,21.59,8.3,20.4Z"/><path class="cls-8" d="M9.26,37.09s5.2-3.63,8.46-1S23.43,38,25.14,39s1.85,1.85.74,2.15-7.86-.23-12.24.66-6.16-1.48-6.23-2.67S8,37.24,9.26,37.09Z"/><path class="cls-10" d="M30.94,48.28c-.51-.08-1,.07-1.55,0-1.24-.25-1.65-1.79-2.54-2.71-1.15-1.18-3-1.19-4.67-1.12l-8.4.36v-1.1a4.12,4.12,0,0,0,.18,3.9,7.29,7.29,0,0,0,1.77,1.82,12.43,12.43,0,0,0,4.85,2.34,9.55,9.55,0,0,0,4.75.06c1-.31,1.93-.86,3-1.1a7.81,7.81,0,0,1,3,0,4.89,4.89,0,0,0,1.57.09,1.39,1.39,0,0,0,1.14-1C32.83,49.71,32.07,48.46,30.94,48.28Z"/><path class="cls-12" d="M4.39,31.2a3.38,3.38,0,0,0,2,3.09,5.24,5.24,0,0,0,2.78.06,31.85,31.85,0,0,0,5.58-1.55c2.54-.95,5.18-2.27,7.84-1.72,1.5.31,3,1.21,4.48.82a12.32,12.32,0,0,1,2.32-.81c.32,0,.63.06.94,0a.84.84,0,0,0,.75-.49c-.45-.54-1.29-.49-2-.47-2.57.05-5-1.08-7.58-1.31a39.87,39.87,0,0,0-4.76.11,9.21,9.21,0,0,1-4.65-.82c-1.93-1-3.17-2-5.42-1A4.52,4.52,0,0,0,4.39,31.2Z"/><path class="cls-6" d="M21.6,12.83a1.84,1.84,0,0,1-.94.91c-.61.18-1.19.07-1.28-.25s.33-.72.94-.9A1.74,1.74,0,0,1,21.6,12.83Z"/><path class="cls-6" d="M30.91,6.08A1.82,1.82,0,0,1,30,7c-.6.22-1.18.15-1.29-.16s.28-.74.88-1A1.82,1.82,0,0,1,30.91,6.08Z"/><path class="cls-6" d="M29,11a1.81,1.81,0,0,1,.84,1c.15.63,0,1.19-.32,1.27s-.69-.37-.84-1A1.76,1.76,0,0,1,29,11Z"/><path class="cls-6" d="M35.94,8.91a1.76,1.76,0,0,1-.91.92c-.62.2-1.18.09-1.29-.22s.32-.72.93-.92A1.76,1.76,0,0,1,35.94,8.91Z"/><path class="cls-6" d="M43.52,8.3a1.77,1.77,0,0,1,1.26.33c.48.43.69,1,.47,1.22s-.79.09-1.26-.33A1.8,1.8,0,0,1,43.52,8.3Z"/><path class="cls-6" d="M37.56,12.65a1.84,1.84,0,0,1,1.26.33c.47.43.68,1,.46,1.22s-.78.1-1.26-.33A1.82,1.82,0,0,1,37.56,12.65Z"/><path class="cls-6" d="M43.52,12.81a1.79,1.79,0,0,1,1.27-.29c.61.16,1.05.55,1,.86s-.65.46-1.27.29A1.78,1.78,0,0,1,43.52,12.81Z"/><path class="cls-6" d="M24.11,8.41a1.79,1.79,0,0,1-.71,1.1c-.55.32-1.13.35-1.3.07s.15-.78.71-1.1A1.81,1.81,0,0,1,24.11,8.41Z"/><path class="cls-6" d="M17.65,10.77a1.8,1.8,0,0,1-1,.81c-.63.12-1.19,0-1.25-.36s.39-.69,1-.81A1.8,1.8,0,0,1,17.65,10.77Z"/><path class="cls-6" d="M25,49a1.83,1.83,0,0,1-.95.91c-.61.18-1.18.07-1.27-.25s.32-.71.94-.9A1.81,1.81,0,0,1,25,49Z"/><path class="cls-6" d="M32.54,45.15a1.79,1.79,0,0,1-.88,1c-.6.22-1.18.15-1.29-.16s.28-.74.88-1A1.79,1.79,0,0,1,32.54,45.15Z"/><path class="cls-6" d="M32.29,48.63a1.81,1.81,0,0,1,.85,1c.14.62,0,1.19-.32,1.26s-.7-.37-.84-1A1.77,1.77,0,0,1,32.29,48.63Z"/><path class="cls-6" d="M37,46.94a1.84,1.84,0,0,1-.93.92c-.6.19-1.18.09-1.28-.22s.31-.72.92-.92A1.83,1.83,0,0,1,37,46.94Z"/><path class="cls-6" d="M47.05,45.26a1.8,1.8,0,0,1-1.16.59c-.64,0-1.16-.28-1.15-.6s.52-.6,1.16-.59A1.76,1.76,0,0,1,47.05,45.26Z"/><path class="cls-6" d="M39.56,44.53a1.77,1.77,0,0,1,1.26.33c.48.43.69,1,.47,1.21s-.79.1-1.26-.33A1.78,1.78,0,0,1,39.56,44.53Z"/><path class="cls-6" d="M40.06,48.64a1.83,1.83,0,0,1,.82-1c.59-.26,1.17-.22,1.3.08s-.23.75-.82,1A1.78,1.78,0,0,1,40.06,48.64Z"/><path class="cls-6" d="M26.71,45.73a1.8,1.8,0,0,1-.7,1.1c-.55.32-1.13.35-1.3.07s.15-.78.7-1.1A1.8,1.8,0,0,1,26.71,45.73Z"/><path class="cls-6" d="M20.25,46.58a1.8,1.8,0,0,1-1,.8c-.63.13-1.19,0-1.25-.36s.39-.68,1-.81A1.79,1.79,0,0,1,20.25,46.58Z"/><path class="cls-13" d="M3.76,37.13a7.41,7.41,0,0,0,4.69,7.79A20.49,20.49,0,0,0,14,51.37a21,21,0,0,0,11.43,4.31c2.91.2,5.86.26,8.29.26l2.39,0A19.57,19.57,0,0,0,54.48,42.54,7.13,7.13,0,0,0,56,41.26a7.32,7.32,0,0,0,1.94-5.33,7.6,7.6,0,0,0-.2-1.41L58,34.3a6.75,6.75,0,0,0,.08-9.53l-.38-.36-.29-.24a7.41,7.41,0,0,0-1.47-6.77,14.89,14.89,0,0,0-1.1-4.4A20.54,20.54,0,0,0,47.1,3.53,21.13,21.13,0,0,0,35.41,0H35.3c-3.94,0-7.91.26-10.56.48A19.57,19.57,0,0,0,7.29,15.15c0,.13-.07.26-.1.4l-.22,1a7.41,7.41,0,0,0-3.45,7.69A14.79,14.79,0,0,0,2.1,25.53,8.62,8.62,0,0,0,0,31.42,7.33,7.33,0,0,0,3.76,37.13ZM36,51.14c-2.59,0-6.48,0-10.28-.22a16.23,16.23,0,0,1-11.32-5.66l34.31-1.52A14.87,14.87,0,0,1,36,51.14ZM52.49,38a2.66,2.66,0,0,1-1.84.86L11.24,40.64A2.67,2.67,0,0,1,8.47,38.1h0V38a7.77,7.77,0,0,0,2-.6l4.21-2a3.85,3.85,0,0,1,1-.3l1,0a4,4,0,0,1,1.76.58l2.46,1.55a9.18,9.18,0,0,0,9.85-.07L32.43,36a3.72,3.72,0,0,1,3.65-.22L38.41,37a7.94,7.94,0,0,0,7.17-.09l2.91-1.53a1.09,1.09,0,0,1,.83-.07l1.86.61a6.9,6.9,0,0,0,2,.34A2.67,2.67,0,0,1,52.49,38ZM25.13,5.2c2.58-.21,6.47-.47,10.28-.46a16.07,16.07,0,0,1,15,10h-.28l-38,.67A14.84,14.84,0,0,1,25.13,5.2ZM8.9,21a2.64,2.64,0,0,1,1.87-.81l39.44-.69a2.66,2.66,0,1,1,.1,5.31h0l-39.45.7A2.66,2.66,0,0,1,8.91,21ZM5.43,28.91c.15-.18.32-.34.49-.51a7.36,7.36,0,0,0,4.89,1.86H11l39.44-.7a7.37,7.37,0,0,0,4.29-1.46,2,2,0,0,1-2,3.25l-1.85-.6a5.85,5.85,0,0,0-4.53.38l-2.91,1.52a3.17,3.17,0,0,1-2.86,0l-2.33-1.15a8.5,8.5,0,0,0-8.35.5L28.1,33.16a4.4,4.4,0,0,1-4.72,0l-2.46-1.55a8.62,8.62,0,0,0-8.24-.52L8.47,33.06A2.63,2.63,0,0,1,5,31.78a2.54,2.54,0,0,1-.21-.66A2.63,2.63,0,0,1,5.43,28.91Z"/></g></g></g></g></g></g></svg>