<svg xmlns="http://www.w3.org/2000/svg" xmlns:xlink="http://www.w3.org/1999/xlink" viewBox="0 0 171 172.1"><defs><style>.cls-1,.cls-23,.cls-3,.cls-4{fill:#fff;}.cls-2{fill:#f6eee1;}.cls-25,.cls-3{fill-rule:evenodd;}.cls-4{stroke:#1a1e28;stroke-miterlimit:10;}.cls-5{mask:url(#mask);}.cls-6{fill:#ff8732;}.cls-7{fill:#160d06;}.cls-8{mask:url(#mask-2);}.cls-9{fill:#1a1e28;}.cls-10{fill:#502314;}.cls-11{fill:#febf48;}.cls-12,.cls-18{fill:#562d11;}.cls-12{stroke:#3d1414;stroke-miterlimit:2.25;stroke-width:0.23px;}.cls-13{fill:#8fc73e;}.cls-14{fill:#f26a3e;}.cls-15{fill:#f79444;}.cls-16{fill:#ffed92;}.cls-17{fill:#f78f43;}.cls-19{fill:#d4de25;}.cls-20{fill:#f47a40;}.cls-21{fill:#dc4c2c;}.cls-22{fill:#67942c;}.cls-23{font-size:9px;font-family:LondrinaSolid-Regular, Londrina Solid;}.cls-24{mask:url(#mask-3);}.cls-25{fill:#e37a27;}</style><mask id="mask" x="0.6" y="0.08" width="170" height="171.17" maskUnits="userSpaceOnUse"><g id="mask0_316_4352" data-name="mask0 316 4352"><path class="cls-1" d="M170.59,72.1a149.88,149.88,0,0,1-8.9,52.31c-11.27,22.92-25.44,28.55-40.81,35.39-40.56,19.29-99.73,18.06-115-35.39C-3,96.53-.2,74.47,11,51.42,21.58,26.64,43.53,11.74,55.58,6.1,98-13.35,165.4,15.86,170.59,72.1Z"/></g></mask><mask id="mask-2" x="42.2" y="22.04" width="84.39" height="130.91" maskUnits="userSpaceOnUse"><g id="mask1_316_4352" data-name="mask1 316 4352"><path class="cls-2" d="M58.13,27.71S47.21,107.38,46.3,111.65s-4,28.11-4.09,29.94.25,7.1,6.47,7.67,19.59,3.68,19.59,3.68l41.1-3.73,10.93-59s4.39-35.47,4.56-36.68,4.67-21.15-1.57-22.64-17.17-2.58-23.74-4.42a106.45,106.45,0,0,0-23.87-3.37C69.38,23.15,59.37,18.67,58.13,27.71Z"/></g></mask><mask id="mask-3" x="49.37" y="15.93" width="84.64" height="37.38" maskUnits="userSpaceOnUse"><g id="b"><path id="a" class="cls-3" d="M53.28,15.93,134,28.81l-3.91,24.5L49.37,40.43Z"/></g></mask></defs><g id="Camada_2" data-name="Camada 2"><g id="Camada_1-2" data-name="Camada 1"><path class="cls-4" d="M170.49,72.52a149.88,149.88,0,0,1-8.9,52.31c-11.27,22.92-25.44,28.55-40.81,35.38-40.56,19.3-99.73,18.07-115-35.38C-3.14,97-.3,74.89,10.87,51.84,21.48,27.06,43.43,12.16,55.48,6.52,97.87-12.94,165.3,16.28,170.49,72.52Z"/><g class="cls-5"><path class="cls-6" d="M48.28,71.06s-2.78-5.15-7.86-2.87-8.61,12-7.23,21.86a176.78,176.78,0,0,0,5.15,22.31s-3,23.93-.29,31.22S43,157,44.57,159.7c.87,1.45.62,3.58-.44,6.38-.08.21-.17.42-.27.64,2.41.59,4.66,1.81,7.12,2.27,3.44.65,6.91,1.17,10.35,1.81h0c3.44.32,6.93.36,10.41.45a4.8,4.8,0,0,1,.92-.1c.61,0,1.22-.06,1.84-.08a11.72,11.72,0,0,1,1.88.11,3.68,3.68,0,0,1,1.36-.16c1.88.15,3.74-.2,5.62-.07a10.48,10.48,0,0,1,2.42-.62c-1.32-4.92-.47-10.05,5.38-11.76a11.89,11.89,0,0,1,5-.3Z"/><path class="cls-7" d="M54.81,25l-16,113.42s-3,15,5.1,16.15,58.82,7.83,63.05,8.89S123.82,84.71,125.67,70s5.73-39,4.18-42.55-3.38-3.29-10.38-4.48-39.37-7.75-45.95-7.2S58.83,13.9,57,18.2l-.85,2A18.68,18.68,0,0,0,54.81,25Z"/><g class="cls-8"><path class="cls-9" d="M58.13,27.71S47.21,107.38,46.3,111.65s-4,28.11-4.09,29.94.25,7.1,6.47,7.67,19.59,3.68,19.59,3.68l41.1-3.73,10.93-59s4.39-35.47,4.56-36.68,4.67-21.15-1.57-22.64-17.17-2.58-23.74-4.42a106.45,106.45,0,0,0-23.87-3.37C69.38,23.15,59.37,18.67,58.13,27.71Z"/><path class="cls-9" d="M103.06,80.27h0S103.15,80.19,103.06,80.27Z"/></g><path class="cls-6" d="M133.84,115s15.41-22.09-16.26-32.85-34,14.44-21.22,20.55c0,0-12.08-1.29-12.81,6.14s2.17,11.82,9.84,15.21c0,0-19.74-.64-22.07,8.25s7,13.28,12.36,14.8c0,0-14.08-.45-15.56,7.33-1,5.26,8.26,12.23,19.17,15.75l1.08-.08a5.74,5.74,0,0,1,1.77-.48,11.08,11.08,0,0,1,3.29-.51l.53.07a5.65,5.65,0,0,1,1.37-.68,14.3,14.3,0,0,1,3.73-.7h.13c.33-.09.64-.23,1-.34a4.06,4.06,0,0,1,1.22-.24l.76-.23.46-.07c3.55-1.29,7.34-2.22,10.89-3.57a25.15,25.15,0,0,1,2.36-1,26.11,26.11,0,0,0,2.77-1.46,5.87,5.87,0,0,1,.79-.4,14.46,14.46,0,0,0,.13-7.11s12.41.21,13.6-7.14-.06-9.38-2.51-11.57c0,0,5.67-2.12,6.27-7.41S137.91,118.79,133.84,115Z"/><path class="cls-10" d="M136.5,119.32a.57.57,0,0,1-.47-.38c-.87-2.28-5.3-6-21.45-10.85-9.77-2.91-19.28-4.82-19.37-4.84l-.17,0-.12-.11c-3.16-2.92-5.22-5.89-6.13-8.84a9.94,9.94,0,0,1,.56-7.71c1.53-2.91,4.62-5.18,8.7-6.39A28.92,28.92,0,0,1,112.41,80c5.34,1.19,13,3.76,19.08,9.28a22.44,22.44,0,0,1,5.08,6.23.59.59,0,0,1-.28.8.6.6,0,0,1-.8-.28,21.77,21.77,0,0,0-4.86-5.91c-3.25-2.93-9.1-6.86-18.48-8.95a27.83,27.83,0,0,0-13.76.13c-3.77,1.11-6.6,3.17-8,5.8a8.7,8.7,0,0,0-.49,6.8,19.72,19.72,0,0,0,5.68,8.2c1.32.27,10.2,2.12,19.31,4.84,13.35,4,20.83,7.87,22.23,11.57a.59.59,0,0,1-.35.77A.52.52,0,0,1,136.5,119.32Z"/><path class="cls-10" d="M132.82,138.17a.6.6,0,0,1-.48-.39c-.39-1.07-2.73-3-11.74-5.89-6.29-2-13.85-3.95-19.37-5.34-2.92-.74-5.23-1.32-6.66-1.75-7-2.06-13.21-8.25-11.61-16.09.66-3.24,3.1-5.42,7.05-6.29a19.47,19.47,0,0,1,5.66-.35.6.6,0,1,1-.13,1.19,18.65,18.65,0,0,0-5.3.33c-3.49.78-5.54,2.58-6.11,5.36-1.1,5.4,2.25,12.18,10.78,14.7,1.4.42,3.7,1,6.61,1.74,5.54,1.39,13.12,3.31,19.45,5.36,10.27,3.34,12.05,5.38,12.49,6.62a.6.6,0,0,1-.36.77A.67.67,0,0,1,132.82,138.17Z"/><path class="cls-10" d="M104.92,152.4c-17-2.4-27.86-6.29-32.28-11.62a8.81,8.81,0,0,1,2-13.48,22.24,22.24,0,0,1,7.85-3,49.2,49.2,0,0,1,10.9-.88.62.62,0,0,1,.57.63.61.61,0,0,1-.63.57c-.21,0-20.66-.84-21.74,9.37a7.85,7.85,0,0,0,1.94,6c2.7,3.26,8.15,6,16.2,8.18,7.66,2.07,17.69,3.61,29.81,4.58a.6.6,0,0,1-.1,1.19Q111.57,153.34,104.92,152.4Z"/><path class="cls-10" d="M72,164.13a37.26,37.26,0,0,0,9.67,5.06c1.2.45,2.4.85,3.6,1.23a25.46,25.46,0,0,1,3.09-.33c-2-.56-4.15-1.23-6.27-2-6-2.27-13.28-6.11-13.7-11.58a6.82,6.82,0,0,1,1.91-5.62c4.08-4,13.2-3.19,13.3-3.18a.6.6,0,1,0,.11-1.19,29.38,29.38,0,0,0-5.38.08c-4,.42-7,1.58-8.86,3.43a7.92,7.92,0,0,0-2.27,6.57C67.43,159.28,69.05,161.83,72,164.13Z"/><path class="cls-10" d="M110.41,99a22,22,0,0,1-6.2-1.83,11.25,11.25,0,0,1-5-3.82,7.39,7.39,0,0,1,0-6.88c1.68-2.78,5.5-4.06,11.36-3.81,4.93.22,8.56,1.33,10.82,3.31a6.72,6.72,0,0,1,.9,9.06c-1.5,2.06-4.49,4.44-10.23,4.14C111.56,99.18,111,99.12,110.41,99Zm3.18-14.87c-.93-.13-1.94-.22-3-.27-5.32-.23-8.87.89-10.29,3.23a6.16,6.16,0,0,0,0,5.65c1.58,2.72,7.6,5,11.92,5.23,5.21.27,7.88-1.83,9.2-3.64l.49.35-.49-.35a5.52,5.52,0,0,0-.73-7.46A13.42,13.42,0,0,0,113.59,84.17Z"/><path class="cls-10" d="M100.92,121.71c-.45-.06-.91-.14-1.39-.25C93.62,120.21,88,118.31,87,113a6,6,0,0,1,3.71-6.68c2.6-1,6-.87,10,.34,3.15.94,7.2,2.87,8.66,6.69a7.41,7.41,0,0,1,.37,4.29,5.07,5.07,0,0,1-2.15,3C106,121.75,103.74,122.11,100.92,121.71Zm-12.71-9c.69,3.77,4,6,11.57,7.55,3.13.67,5.53.46,7.12-.62a3.82,3.82,0,0,0,1.67-2.31l0-.06a6.42,6.42,0,0,0-.35-3.64c-1-2.63-3.76-4.67-7.86-5.91-3.76-1.13-6.86-1.25-9.21-.36A4.78,4.78,0,0,0,88.21,112.74Z"/><path class="cls-10" d="M86.29,142.94a20.43,20.43,0,0,1-2-.39c-5.73-1.34-7.84-5-8.59-7a4.54,4.54,0,0,1,1.12-4.85c2.54-2.38,6.64-2.44,9.64-2.06,6,.74,8.93,1.78,10.13,3.56a5.16,5.16,0,0,1,.32,4.27C95.51,141.61,92,143.75,86.29,142.94Zm-9.48-7.84c.81,2.23,2.81,5.13,7.73,6.29,3.54.83,6.29.64,8.16-.55a7.54,7.54,0,0,0,3-4.72c.41-1.54.36-2.53-.16-3.29-1-1.42-3.82-2.36-9.28-3-5-.62-7.45.61-8.67,1.75A3.32,3.32,0,0,0,76.81,135.1Z"/><path class="cls-10" d="M81.69,161.9a11.4,11.4,0,0,1-2.12-.51,20.9,20.9,0,0,1-5.2-2.41,4.16,4.16,0,0,1,.61-7.19,12.25,12.25,0,0,1,6.82-.65c3.49.49,5.79,1.59,6.85,3.28a3.69,3.69,0,0,1,.49,2.89,6.59,6.59,0,0,1-3,3.9A7,7,0,0,1,81.69,161.9ZM75.05,158a19.92,19.92,0,0,0,4.9,2.27c2.26.74,4.15.71,5.59-.09A5.4,5.4,0,0,0,88,157l0,0a2.58,2.58,0,0,0-.38-1.94c-.6-.93-2.13-2.16-6-2.7a11,11,0,0,0-6.15.56,2.88,2.88,0,0,0-1.7,2.41A2.92,2.92,0,0,0,75.05,158Z"/></g><g id="Camada_2-2" data-name="Camada 2"><g id="Camada_1-2-2" data-name="Camada 1-2"><g id="Camada_2-2-2" data-name="Camada 2-2"><g id="Camada_1-2-2-2" data-name="Camada 1-2-2"><g id="Camada_2-2-2-2" data-name="Camada 2-2-2"><g id="Object"><path class="cls-11" d="M99.09,72.69a8,8,0,0,0-6.62-6.11c-1.89-.3-3.83-.49-5.12-.58a7.42,7.42,0,0,0-7.22,4L99,72.66Z"/><path class="cls-11" d="M89.71,86.57c.07-.13.15-.24.22-.37L78.94,85a8.1,8.1,0,0,0,5.14,3.68c1.58.36,3.21.63,4.45.82A7.31,7.31,0,0,1,89.71,86.57Z"/><path class="cls-12" d="M91.49,83.94c.24-.28.48-.54.73-.79a3.52,3.52,0,0,1-.8-.4L90.36,82a1.88,1.88,0,0,0-1.82-.18l-.94.4a4.59,4.59,0,0,1-4.87-.74l-1.09-1a2.06,2.06,0,0,0-.83-.43L80.34,80a1.46,1.46,0,0,0-.51.07l-2.24.66a4.07,4.07,0,0,1-1,.14V81a1.34,1.34,0,0,0,1.18,1.47L91.46,84Z"/><path class="cls-13" d="M97.33,80.4a5,5,0,0,1,1.41-.35l.08,0a3.87,3.87,0,0,1-.9,0L78.41,77.27h-.07A3.73,3.73,0,0,1,76,76l-.28.21a1.32,1.32,0,0,0-.2,1.85,1.21,1.21,0,0,0,.23.22h0a1.34,1.34,0,0,0,1.16.22l2.24-.66a4.31,4.31,0,0,1,4,.91l1.09,1a2.22,2.22,0,0,0,2.34.37l.93-.44a4.27,4.27,0,0,1,4.17.41l1.06.75a1.57,1.57,0,0,0,1.41.22l1.56-.53A2.85,2.85,0,0,1,97.33,80.4Z"/><path class="cls-14" d="M78.71,74.91l19.55,2.74a1.32,1.32,0,0,0,1.56-1,1.33,1.33,0,0,0-1-1.57l-.16,0h0L79.08,72.28a1.33,1.33,0,1,0-.37,2.63Z"/><path class="cls-15" d="M79.6,70c0-.25,1.67-3.68,7.27-3.31s5,2.82,7.87,4.11,1.47-1.48,1.47-1.48,3.29,1.36,3.31,3.24S79.29,71.18,79.6,70Z"/><path class="cls-15" d="M89.71,86.57c.16-.29.34-.57.52-.86-5.48-.67-12.4-1.26-12.4-1.26s1.81,3.63,5.12,4.63a14.09,14.09,0,0,0,5.6.29A7.64,7.64,0,0,1,89.71,86.57Z"/><path class="cls-16" d="M91.71,67.16a8.33,8.33,0,0,1,2.51,1.54c.91.93,1.34.34.5-.61S91.2,66.59,91.71,67.16Z"/><path class="cls-17" d="M99.29,74.8c-.15,0-13.66-2.2-15.52-1.82s8.8,2.3,11.26,2.65-2,.42-.74.93,5.06,1.48,5.84.85S100.26,74.84,99.29,74.8Z"/><path class="cls-18" d="M90.21,82.71a3,3,0,0,0,1.49,1c.21-.23.42-.46.64-.67a1.93,1.93,0,0,1-.75-.36c-1.4-1.12-1.85-1.57-2.55-1.26L87.8,82S89.56,81.73,90.21,82.71Z"/><path class="cls-19" d="M95,80c-1.63.79-2.4.71-3,.46s.69,1.85,2.08,1.52l.18-.14a1.14,1.14,0,0,1,.23-.15c.12-.06.24-.1.36-.15l.12,0a1.24,1.24,0,0,1,.27,0,11.51,11.51,0,0,1,1.18-.56A4.32,4.32,0,0,1,98,80.19,3.44,3.44,0,0,0,95,80Z"/><path class="cls-20" d="M98.48,72.43a.44.44,0,0,0-.19-.33A1.74,1.74,0,0,0,97,71.82a7,7,0,0,1-1.37.08c-.62-.09-1.16-.45-1.78-.59-.35-.08-.72-.08-1.08-.14-1.72-.32-2.79-2.07-4.36-2.81a7.75,7.75,0,0,0-3.89-.4,11.4,11.4,0,0,0-3.83.76l-.6.56a.83.83,0,0,0-.78.88v0a1.11,1.11,0,0,0,.61.76,3,3,0,0,0,.94.27c3.26.57,6.56,1,9.86,1.34,2,.23,3.9.45,5.86.59a2,2,0,0,0,1.81-.48A.45.45,0,0,0,98.48,72.43Z"/><path class="cls-21" d="M77.85,72.19s2.31-.38,3.46,1.12,2.9.87,4.18,1.63,4.27,1,4.82,1.52-2.33.27-2.33.27-9.35-1-10.28-1.78A1.65,1.65,0,0,1,77.85,72.19Z"/><path class="cls-18" d="M77,80.51s2.85-1.38,4.25.17,2.67,1.39,3.44,2,.77,1.06.2,1.12-3.87-.73-6.1-.63S75.88,82,75.94,81.38A.92.92,0,0,1,77,80.51Z"/><path class="cls-20" d="M86.85,87.74c-.24-.08-.5,0-.76-.12-.6-.22-.68-1-1-1.54a3,3,0,0,0-2.22-.92l-4.18-.48.09-.54a2.09,2.09,0,0,0-.22,1.94,3.79,3.79,0,0,0,.74,1,6.19,6.19,0,0,0,2.21,1.53,4.7,4.7,0,0,0,2.34.4c.52-.07,1-.27,1.57-.31a4.14,4.14,0,0,1,1.48.24,2.6,2.6,0,0,0,.77.17.69.69,0,0,0,.64-.41C87.67,88.59,87.4,87.92,86.85,87.74Z"/><path class="cls-22" d="M75.07,77.22a1.7,1.7,0,0,0,.75,1.69,2.56,2.56,0,0,0,1.37.24,15.39,15.39,0,0,0,2.87-.33c1.33-.27,2.74-.71,4-.23.72.27,1.39.83,2.15.75a7.15,7.15,0,0,1,1.21-.22,2.61,2.61,0,0,0,.46.08A.42.42,0,0,0,88.3,79c-.18-.3-.6-.34-1-.38-1.27-.18-2.38-.93-3.64-1.24a18.84,18.84,0,0,0-2.36-.32,4.66,4.66,0,0,1-2.23-.77c-.88-.65-1.41-1.24-2.6-.92A2.27,2.27,0,0,0,75.07,77.22Z"/><path class="cls-16" d="M85,69.49a1,1,0,0,1-.54.38c-.31,0-.59-.06-.61-.22s.22-.33.54-.38A.92.92,0,0,1,85,69.49Z"/><path class="cls-16" d="M90.14,66.89a1,1,0,0,1-.52.38c-.32.06-.6,0-.63-.18s.2-.34.51-.43A.93.93,0,0,1,90.14,66.89Z"/><path class="cls-16" d="M88.81,69.17a.92.92,0,0,1,.34.56c0,.32-.1.59-.26.6s-.31-.24-.34-.56A.89.89,0,0,1,88.81,69.17Z"/><path class="cls-16" d="M92.4,68.68a.87.87,0,0,1-.52.38c-.32,0-.59,0-.62-.21s.21-.33.53-.38A.86.86,0,0,1,92.4,68.68Z"/><path class="cls-16" d="M96.19,69a.89.89,0,0,1,.6.26c.2.25.26.55.14.64s-.4,0-.6-.26A1,1,0,0,1,96.19,69Z"/><path class="cls-16" d="M92.91,70.65a1,1,0,0,1,.6.26c.19.25.25.55.13.64s-.4,0-.6-.26A.9.9,0,0,1,92.91,70.65Z"/><path class="cls-16" d="M95.84,71.2a.91.91,0,0,1,.65,0c.29.13.48.36.43.51s-.36.17-.65,0A.92.92,0,0,1,95.84,71.2Z"/><path class="cls-16" d="M86.6,67.51a.9.9,0,0,1-.44.48c-.3.12-.59.09-.65-.06s.14-.38.44-.49A.87.87,0,0,1,86.6,67.51Z"/><path class="cls-16" d="M83.22,68.17a.94.94,0,0,1-.56.32c-.32,0-.59-.09-.59-.28s.25-.31.56-.32A.91.91,0,0,1,83.22,68.17Z"/><path class="cls-16" d="M83.86,87.63a.89.89,0,0,1-.54.37c-.32,0-.59,0-.61-.22s.22-.32.54-.37A.87.87,0,0,1,83.86,87.63Z"/><path class="cls-16" d="M87.89,86.32a.91.91,0,0,1-.52.42c-.31.06-.59,0-.62-.18s.19-.34.51-.42A.9.9,0,0,1,87.89,86.32Z"/><path class="cls-16" d="M87.49,88a.87.87,0,0,1,.34.56c0,.31-.09.59-.25.59s-.32-.23-.34-.56A.83.83,0,0,1,87.49,88Z"/><path class="cls-16" d="M85,86.15a.94.94,0,0,1-.43.49c-.3.11-.59.08-.65-.07s.14-.37.43-.49A.86.86,0,0,1,85,86.15Z"/><path class="cls-16" d="M81.7,86.06a.89.89,0,0,1-.55.32c-.33,0-.59-.09-.59-.28s.24-.3.55-.32A.91.91,0,0,1,81.7,86.06Z"/><path class="cls-9" d="M102.1,78.25l-.16-.21-.13-.14a3.69,3.69,0,0,0-.19-3.46,7.48,7.48,0,0,0-.2-2.26,10.29,10.29,0,0,0-3.08-5.29,10.72,10.72,0,0,0-5.5-2.66h-.06c-1.94-.31-3.93-.49-5.25-.59a9.78,9.78,0,0,0-9.77,5.88c0,.06-.06.12-.08.19l-.19.48a3.7,3.7,0,0,0-2.31,3.53,7.79,7.79,0,0,0-.8.52A4.37,4.37,0,0,0,72.88,77a3.67,3.67,0,0,0,1.41,3.11A3.72,3.72,0,0,0,76,84.32a10.38,10.38,0,0,0,2.24,3.62,10.51,10.51,0,0,0,5.31,3c1.42.33,2.87.59,4.08.78l.77.12a4.11,4.11,0,0,1,0-1c.06-.44,0-.87.09-1.31,0,0,0,0,0,0-1.24-.2-2.87-.47-4.46-.82A8.06,8.06,0,0,1,78.92,85l11,1.25A18,18,0,0,1,91.47,84L77.72,82.42A1.33,1.33,0,0,1,76.55,81v0a4.07,4.07,0,0,0,1-.14l2.24-.66a2.16,2.16,0,0,1,.51-.07l.5.08a2,2,0,0,1,.82.43l1.1.95a4.59,4.59,0,0,0,4.87.74l.92-.44a1.86,1.86,0,0,1,1.82.17l1,.79a3.52,3.52,0,0,0,.8.4,4.66,4.66,0,0,1,1.5-1,.63.63,0,0,1,.26-.05,2.43,2.43,0,0,1,.25-.2,1.14,1.14,0,0,1,.23-.15c.12-.06.24-.1.36-.15l.12,0a1.15,1.15,0,0,1,.26,0,12.73,12.73,0,0,1,1.18-.56,4.46,4.46,0,0,1,1-.53,2.84,2.84,0,0,0-1.53.07L94.25,81a1.55,1.55,0,0,1-1.41-.22L91.78,80a4.27,4.27,0,0,0-4.17-.41l-1,.44a2.21,2.21,0,0,1-2.33-.37l-1.1-1a4.28,4.28,0,0,0-4-.9l-2.23.64a1.31,1.31,0,0,1-1.61-.9,1.27,1.27,0,0,1,.43-1.39L76,76a3.68,3.68,0,0,0,2.28,1.3l.09,0L98,80a4,4,0,0,0,.85,0A1.74,1.74,0,0,1,99,80h0a4.79,4.79,0,0,1,2.16-.53c.46-.07.91-.15,1.36-.19A2.93,2.93,0,0,0,102.1,78.25ZM87.35,66c1.29.1,3.23.27,5.12.58a8,8,0,0,1,6.62,6.11l-.13,0L80.13,70A7.41,7.41,0,0,1,87.35,66ZM98.41,77.68l-.15,0L78.71,74.92a1.34,1.34,0,0,1-1.13-1.51,1.32,1.32,0,0,1,.52-.87h0a1.28,1.28,0,0,1,1-.26L98.62,75a1.33,1.33,0,1,1-.21,2.65Z"/></g></g></g></g></g></g><text class="cls-23" transform="matrix(0.98, 0.18, -0.18, 0.98, 77.03, 56.37)">Burgeria</text><g class="cls-24"><path class="cls-25" d="M119.51,29.33a25.57,25.57,0,0,0-6.92-1.74L109.14,27c-2.56-.28-5.11-.63-7.65-1.07-4.28-.74-8.53-1.69-12.84-2.23-2.15-.26-4.3-.48-6.45-.73s-4.36-.61-6.55-.89a57.43,57.43,0,0,0-6.28-.43,20.18,20.18,0,0,0-5.91.41c3.47,4.42,6.48,9.64,12.23,9.24,3.32-.23,6.44-2.61,9.79-2.12,8,1.18,9.74,15.64,16.83,19.22a7.11,7.11,0,0,0,6.82.12,18,18,0,0,0,5.42-5.36c2.77-3.81,5.37-8,8.48-11.22.26-.26.53-.51.8-.76A30.31,30.31,0,0,1,119.51,29.33Z"/></g></g></g></svg>