<svg xmlns="http://www.w3.org/2000/svg" xmlns:xlink="http://www.w3.org/1999/xlink" viewBox="0 0 170 171.31"><defs><style>.cls-1,.cls-22,.cls-3{fill:#fff;}.cls-2{fill:#f6eee1;}.cls-24,.cls-3{fill-rule:evenodd;}.cls-4{mask:url(#mask);}.cls-5{fill:#ff8732;}.cls-6{fill:#160d06;}.cls-7{mask:url(#mask-2);}.cls-8{fill:#191e2b;}.cls-9{fill:#502314;}.cls-10{fill:#febf48;}.cls-11,.cls-17{fill:#562d11;}.cls-11{stroke:#3d1414;stroke-miterlimit:2.25;stroke-width:0.23px;}.cls-12{fill:#8fc73e;}.cls-13{fill:#f26a3e;}.cls-14{fill:#f79444;}.cls-15{fill:#ffed92;}.cls-16{fill:#f78f43;}.cls-18{fill:#d4de25;}.cls-19{fill:#f47a40;}.cls-20{fill:#dc4c2c;}.cls-21{fill:#67942c;}.cls-22{font-size:9px;font-family:LondrinaSolid-Regular, Londrina Solid;}.cls-23{mask:url(#mask-3);}.cls-24{fill:#e37a27;}</style><mask id="mask" x="0.34" y="0.14" width="170" height="171.17" maskUnits="userSpaceOnUse"><g id="mask0_316_4352" data-name="mask0 316 4352"><path class="cls-1" d="M170.33,72.16a150.38,150.38,0,0,1-8.9,52.31C150.16,147.38,136,153,120.62,159.85c-40.57,19.29-99.74,18.07-115-35.38-8.93-27.88-6.09-49.94,5.08-73C21.31,26.69,43.26,11.8,55.32,6.15,97.7-13.3,165.14,15.92,170.33,72.16Z"/></g></mask><mask id="mask-2" x="41.94" y="22.1" width="84.39" height="130.91" maskUnits="userSpaceOnUse"><g id="mask1_316_4352" data-name="mask1 316 4352"><path class="cls-2" d="M57.87,27.77S46.94,107.43,46,111.71,42,139.82,42,141.65s.24,7.1,6.46,7.67S68,153,68,153l41.1-3.73,10.93-59s4.39-35.48,4.56-36.68S129.27,32.46,123,31s-17.16-2.57-23.73-4.42a105.93,105.93,0,0,0-23.87-3.36C69.11,23.21,59.11,18.73,57.87,27.77Z"/></g></mask><mask id="mask-3" x="49.1" y="15.98" width="84.64" height="37.38" maskUnits="userSpaceOnUse"><g id="b"><path id="a" class="cls-3" d="M53,16l80.73,12.89-3.91,24.5L49.1,40.48Z"/></g></mask></defs><g id="Camada_2" data-name="Camada 2"><g id="Camada_1-2" data-name="Camada 1"><path class="cls-1" d="M170,72a149.88,149.88,0,0,1-8.9,52.31c-11.27,22.92-25.44,28.55-40.81,35.38-40.56,19.3-99.73,18.07-115-35.38-8.92-27.88-6.08-49.94,5.09-73C21,26.56,42.93,11.66,55,6,97.37-13.44,164.8,15.78,170,72Z"/><g class="cls-4"><path class="cls-5" d="M48,71.12S45.24,66,40.16,68.24s-8.61,12-7.24,21.87a176.78,176.78,0,0,0,5.15,22.31s-3,23.92-.28,31.22,4.89,13.43,6.51,16.12c.88,1.45.62,3.58-.44,6.38-.07.2-.17.42-.26.64,2.4.58,4.65,1.8,7.11,2.27,3.44.64,6.91,1.17,10.36,1.8h0c3.44.32,6.93.36,10.41.45a4.72,4.72,0,0,1,.92-.11c.61,0,1.22,0,1.83-.07a10.84,10.84,0,0,1,1.89.11,3.64,3.64,0,0,1,1.35-.17c1.88.15,3.75-.19,5.63-.07a10.34,10.34,0,0,1,2.42-.61c-1.32-4.93-.48-10,5.38-11.76a11.71,11.71,0,0,1,5-.3Z"/><path class="cls-6" d="M54.54,25l-16,113.42s-3,15,5.1,16.16,58.82,7.83,63.05,8.89,16.86-78.73,18.7-93.44,5.73-39,4.19-42.55-3.38-3.29-10.38-4.49-39.37-7.75-45.95-7.19S58.56,14,56.73,18.25l-.86,2A19.14,19.14,0,0,0,54.54,25Z"/><g class="cls-7"><path class="cls-8" d="M57.87,27.77S46.94,107.43,46,111.71,42,139.82,42,141.65s.24,7.1,6.46,7.67S68,153,68,153l41.1-3.73,10.93-59s4.39-35.48,4.56-36.68S129.27,32.46,123,31s-17.16-2.57-23.73-4.42a105.93,105.93,0,0,0-23.87-3.36C69.11,23.21,59.11,18.73,57.87,27.77Z"/><path class="cls-8" d="M102.8,80.32h0S102.88,80.24,102.8,80.32Z"/></g><path class="cls-5" d="M133.58,115.05S149,93,117.31,82.19s-34,14.45-21.22,20.55c0,0-12.07-1.28-12.81,6.14s2.17,11.83,9.84,15.21c0,0-19.73-.63-22.06,8.26s7,13.28,12.36,14.8c0,0-14.08-.45-15.56,7.33-1,5.25,8.25,12.23,19.16,15.74l1.09-.08a5.58,5.58,0,0,1,1.77-.47,10.7,10.7,0,0,1,3.28-.51l.54.07a5.31,5.31,0,0,1,1.37-.68,13.9,13.9,0,0,1,3.73-.7h.13c.32-.1.63-.23.95-.35a3.7,3.7,0,0,1,1.21-.23c.26-.08.51-.17.77-.23a3.65,3.65,0,0,1,.46-.07c3.55-1.29,7.33-2.23,10.89-3.57a21.86,21.86,0,0,1,2.36-1,25,25,0,0,0,2.76-1.46,6.52,6.52,0,0,1,.79-.4,14.46,14.46,0,0,0,.13-7.11s12.42.21,13.61-7.15-.06-9.37-2.52-11.56c0,0,5.68-2.12,6.27-7.42S137.65,118.85,133.58,115.05Z"/><path class="cls-9" d="M136.24,119.38a.6.6,0,0,1-.48-.38c-.87-2.29-5.29-6-21.45-10.85-9.77-2.92-19.27-4.83-19.37-4.85l-.16,0-.13-.11c-3.16-2.92-5.22-5.89-6.13-8.84a10,10,0,0,1,.57-7.71c1.53-2.92,4.62-5.19,8.7-6.39a28.92,28.92,0,0,1,14.36-.15c5.34,1.19,13,3.76,19.08,9.27a22.62,22.62,0,0,1,5.08,6.24.6.6,0,0,1-1.08.52,22,22,0,0,0-4.86-5.92c-3.25-2.92-9.1-6.85-18.49-8.94a27.67,27.67,0,0,0-13.75.13c-3.77,1.11-6.6,3.17-8,5.8a8.65,8.65,0,0,0-.48,6.8,19.51,19.51,0,0,0,5.67,8.19c1.32.27,10.21,2.12,19.32,4.84,13.34,4,20.82,7.88,22.22,11.58a.59.59,0,0,1-.34.77A.52.52,0,0,1,136.24,119.38Z"/><path class="cls-9" d="M132.55,138.22a.6.6,0,0,1-.48-.39c-.38-1.07-2.73-3-11.73-5.88-6.29-2-13.85-3.95-19.38-5.35-2.92-.73-5.23-1.32-6.65-1.74-7-2.07-13.21-8.26-11.62-16.1.67-3.24,3.1-5.41,7-6.28a19.54,19.54,0,0,1,5.67-.35.61.61,0,0,1,.53.66.6.6,0,0,1-.66.53,18.3,18.3,0,0,0-5.31.33c-3.48.78-5.54,2.58-6.1,5.36-1.1,5.39,2.25,12.18,10.78,14.7,1.4.42,3.7,1,6.61,1.73,5.53,1.4,13.12,3.32,19.44,5.37,10.27,3.34,12,5.37,12.5,6.62a.59.59,0,0,1-.36.76A.49.49,0,0,1,132.55,138.22Z"/><path class="cls-9" d="M104.65,152.46c-17-2.4-27.86-6.3-32.28-11.62a9,9,0,0,1-2.21-6.9,8.89,8.89,0,0,1,4.24-6.58,22.05,22.05,0,0,1,7.85-3,49.23,49.23,0,0,1,10.9-.88.59.59,0,0,1,.57.62.6.6,0,0,1-.63.58c-.2,0-20.66-.84-21.74,9.37a7.87,7.87,0,0,0,2,6c2.7,3.25,8.15,6,16.19,8.18,7.67,2.06,17.7,3.6,29.81,4.57a.6.6,0,1,1-.1,1.2C113.94,153.61,109.08,153.08,104.65,152.46Z"/><path class="cls-9" d="M71.77,164.19a37.35,37.35,0,0,0,9.66,5.05c1.2.46,2.41.86,3.6,1.23a27.82,27.82,0,0,1,3.1-.33c-2-.56-4.15-1.22-6.28-2-6-2.26-13.28-6.11-13.69-11.58a6.72,6.72,0,0,1,1.91-5.61c4.07-4,13.2-3.19,13.29-3.18a.6.6,0,0,0,.12-1.2,30.06,30.06,0,0,0-5.39.09c-4,.42-7,1.57-8.86,3.43A7.93,7.93,0,0,0,67,156.63C67.17,159.34,68.78,161.88,71.77,164.19Z"/><path class="cls-9" d="M110.14,99.1a22.66,22.66,0,0,1-6.2-1.83,11.32,11.32,0,0,1-5-3.83A7.41,7.41,0,0,1,99,86.57c1.68-2.78,5.5-4.06,11.36-3.81,4.93.22,8.57,1.33,10.82,3.31a6.72,6.72,0,0,1,.91,9.06c-1.5,2.05-4.49,4.43-10.23,4.14C111.3,99.24,110.72,99.18,110.14,99.1Zm3.19-14.87a30.06,30.06,0,0,0-3-.27c-5.31-.23-8.87.89-10.28,3.23a6.17,6.17,0,0,0,0,5.65c1.58,2.72,7.6,5,11.93,5.23,5.2.27,7.87-1.83,9.2-3.65l.48.36-.48-.36A5.52,5.52,0,0,0,120.4,87,13.42,13.42,0,0,0,113.33,84.23Z"/><path class="cls-9" d="M100.65,121.77c-.45-.07-.91-.15-1.38-.25-5.92-1.25-11.53-3.15-12.51-8.51a6,6,0,0,1,3.72-6.68c2.6-1,6-.88,10,.33,3.14,1,7.2,2.88,8.66,6.69a7.46,7.46,0,0,1,.36,4.29,5,5,0,0,1-2.14,3.06C105.72,121.81,103.48,122.17,100.65,121.77Zm-12.7-9c.68,3.77,4,6,11.57,7.56,3.13.66,5.52.45,7.12-.62a3.88,3.88,0,0,0,1.67-2.32v-.06a6.38,6.38,0,0,0-.35-3.63c-1-2.63-3.75-4.67-7.86-5.91-3.76-1.13-6.86-1.25-9.21-.36A4.77,4.77,0,0,0,88,112.79Z"/><path class="cls-9" d="M86,143c-.64-.09-1.32-.21-2-.38-5.73-1.35-7.84-5-8.58-7a4.51,4.51,0,0,1,1.11-4.85c2.55-2.39,6.65-2.44,9.64-2.07,6,.75,8.93,1.78,10.13,3.56a5.11,5.11,0,0,1,.32,4.28C95.25,141.66,91.77,143.8,86,143Zm-9.48-7.83c.81,2.23,2.81,5.13,7.74,6.28,3.54.84,6.29.65,8.16-.54a7.6,7.6,0,0,0,3-4.72c.41-1.54.37-2.53-.15-3.29-1-1.43-3.82-2.36-9.29-3-5-.62-7.45.61-8.67,1.76A3.32,3.32,0,0,0,76.54,135.16Z"/><path class="cls-9" d="M81.43,162a12,12,0,0,1-2.12-.51,20.56,20.56,0,0,1-5.2-2.42,4.14,4.14,0,0,1,.61-7.18,12.22,12.22,0,0,1,6.81-.65c3.49.49,5.8,1.59,6.85,3.28a3.72,3.72,0,0,1,.5,2.89,6.59,6.59,0,0,1-3,3.9A7,7,0,0,1,81.43,162Zm-6.64-3.91a19.66,19.66,0,0,0,4.89,2.26c2.27.75,4.15.72,5.6-.08a5.53,5.53,0,0,0,2.44-3.16v0a2.47,2.47,0,0,0-.38-1.94c-.6-.93-2.12-2.16-6-2.71a11.17,11.17,0,0,0-6.15.56,3,3,0,0,0-.43,5.11Z"/></g><g id="Camada_2-2" data-name="Camada 2"><g id="Camada_1-2-2" data-name="Camada 1-2"><g id="Camada_2-2-2" data-name="Camada 2-2"><g id="Camada_1-2-2-2" data-name="Camada 1-2-2"><g id="Camada_2-2-2-2" data-name="Camada 2-2-2"><g id="Object"><path class="cls-10" d="M98.83,72.75a8.05,8.05,0,0,0-6.63-6.12c-1.89-.3-3.82-.48-5.11-.57a7.41,7.41,0,0,0-7.22,4l18.82,2.64Z"/><path class="cls-10" d="M89.44,86.63c.07-.13.15-.25.23-.37L78.67,85a8.12,8.12,0,0,0,5.15,3.68c1.58.37,3.2.64,4.45.83A7.3,7.3,0,0,1,89.44,86.63Z"/><path class="cls-11" d="M91.23,84a9.23,9.23,0,0,1,.73-.79,4.35,4.35,0,0,1-.81-.4l-1.06-.75a1.83,1.83,0,0,0-1.82-.18l-.93.4a4.59,4.59,0,0,1-4.87-.74l-1.1-1a2,2,0,0,0-.83-.42l-.46-.08a2.25,2.25,0,0,0-.52.07l-2.24.66a3.57,3.57,0,0,1-1,.15V81a1.33,1.33,0,0,0,1.17,1.46L91.2,84Z"/><path class="cls-12" d="M97.06,80.46a4.85,4.85,0,0,1,1.42-.35l.08,0a3.47,3.47,0,0,1-.91,0l-19.5-2.74h-.07a3.73,3.73,0,0,1-2.3-1.3,1.86,1.86,0,0,0-.28.21,1.32,1.32,0,0,0-.21,1.85,1.51,1.51,0,0,0,.23.21h0a1.31,1.31,0,0,0,1.16.23l2.24-.66a4.27,4.27,0,0,1,4,.91l1.1,1a2.19,2.19,0,0,0,2.33.37l.94-.44a4.25,4.25,0,0,1,4.16.42l1.06.75a1.61,1.61,0,0,0,1.41.22l1.56-.53A2.86,2.86,0,0,1,97.06,80.46Z"/><path class="cls-13" d="M78.45,75,98,77.71a1.33,1.33,0,1,0,.52-2.61l-.15,0h0L78.82,72.33A1.33,1.33,0,0,0,78.45,75Z"/><path class="cls-14" d="M79.34,70c0-.25,1.66-3.69,7.26-3.32s5,2.82,7.88,4.12S96,69.33,96,69.33s3.29,1.35,3.31,3.23S79,71.23,79.34,70Z"/><path class="cls-14" d="M89.44,86.63c.17-.3.35-.58.53-.86-5.48-.67-12.41-1.26-12.41-1.26s1.81,3.63,5.12,4.63a13.89,13.89,0,0,0,5.6.28A7.77,7.77,0,0,1,89.44,86.63Z"/><path class="cls-15" d="M91.44,67.22A8.25,8.25,0,0,1,94,68.76c.9.93,1.34.34.5-.61S90.93,66.65,91.44,67.22Z"/><path class="cls-16" d="M99,74.86c-.15,0-13.66-2.2-15.53-1.82s8.81,2.3,11.27,2.64-2.06.43-.75.94,5.06,1.47,5.84.84S100,74.9,99,74.86Z"/><path class="cls-17" d="M89.94,82.77a3,3,0,0,0,1.5,1,6.75,6.75,0,0,1,.64-.67,2.05,2.05,0,0,1-.76-.36c-1.39-1.13-1.85-1.57-2.54-1.27L87.53,82S89.29,81.79,89.94,82.77Z"/><path class="cls-18" d="M94.74,80.09c-1.62.79-2.4.71-3,.46s.7,1.85,2.09,1.52l.17-.15a1.88,1.88,0,0,1,.24-.14,2.17,2.17,0,0,1,.35-.15l.13,0a1.26,1.26,0,0,1,.27,0A12.47,12.47,0,0,1,96.12,81a4.55,4.55,0,0,1,1.6-.75A3.5,3.5,0,0,0,94.74,80.09Z"/><path class="cls-19" d="M98.22,72.49a.44.44,0,0,0-.2-.34,1.83,1.83,0,0,0-1.29-.28,6.27,6.27,0,0,1-1.37.09c-.61-.1-1.16-.46-1.77-.59-.36-.09-.73-.08-1.09-.15-1.72-.31-2.78-2.06-4.36-2.8a7.71,7.71,0,0,0-3.88-.4,11.75,11.75,0,0,0-3.84.75l-.59.56a.85.85,0,0,0-.79.89v0a1.06,1.06,0,0,0,.6.76,3.5,3.5,0,0,0,.94.28c3.27.57,6.57,1,9.86,1.34,2,.22,3.9.45,5.86.59a2,2,0,0,0,1.81-.48A.46.46,0,0,0,98.22,72.49Z"/><path class="cls-20" d="M77.58,72.25s2.32-.38,3.47,1.11,2.9.87,4.17,1.64,4.28,1,4.83,1.52-2.34.27-2.34.27-9.35-1-10.27-1.78A1.65,1.65,0,0,1,77.58,72.25Z"/><path class="cls-17" d="M76.75,80.57s2.85-1.39,4.26.17,2.67,1.39,3.44,2,.77,1,.19,1.12-3.86-.73-6.1-.64-2.92-1.21-2.86-1.8A.91.91,0,0,1,76.75,80.57Z"/><path class="cls-19" d="M86.59,87.79c-.25-.07-.5,0-.77-.12-.59-.22-.68-1-1-1.53a3,3,0,0,0-2.22-.92l-4.18-.48.09-.55a2.06,2.06,0,0,0-.22,2,3.71,3.71,0,0,0,.73,1,6.3,6.3,0,0,0,2.21,1.54,4.74,4.74,0,0,0,2.35.4c.51-.08,1-.27,1.56-.31a3.79,3.79,0,0,1,1.49.24,2.46,2.46,0,0,0,.77.16.69.69,0,0,0,.64-.4C87.41,88.65,87.13,88,86.59,87.79Z"/><path class="cls-21" d="M74.8,77.28A1.69,1.69,0,0,0,75.55,79a2.6,2.6,0,0,0,1.37.25,15.5,15.5,0,0,0,2.88-.33c1.33-.27,2.74-.72,4-.24.71.27,1.38.84,2.15.76a6.14,6.14,0,0,1,1.21-.22,1.77,1.77,0,0,0,.46.07.4.4,0,0,0,.41-.18c-.18-.3-.6-.34-1-.39-1.28-.17-2.39-.92-3.65-1.24a20.6,20.6,0,0,0-2.36-.32,4.52,4.52,0,0,1-2.23-.77c-.87-.64-1.41-1.23-2.6-.91A2.26,2.26,0,0,0,74.8,77.28Z"/><path class="cls-15" d="M84.74,69.55a.9.9,0,0,1-.53.38c-.32,0-.59-.06-.61-.23s.22-.33.53-.37A.84.84,0,0,1,84.74,69.55Z"/><path class="cls-15" d="M89.87,66.94a.89.89,0,0,1-.52.39c-.31.06-.59,0-.62-.18s.19-.35.51-.43A.9.9,0,0,1,89.87,66.94Z"/><path class="cls-15" d="M88.54,69.22a.92.92,0,0,1,.34.56c0,.33-.09.59-.26.61s-.31-.24-.33-.56A.86.86,0,0,1,88.54,69.22Z"/><path class="cls-15" d="M92.14,68.73a.91.91,0,0,1-.53.39c-.32,0-.59-.05-.62-.21s.22-.33.54-.38A.9.9,0,0,1,92.14,68.73Z"/><path class="cls-15" d="M95.93,69a.87.87,0,0,1,.6.26c.2.25.26.55.13.64s-.39,0-.59-.26A.86.86,0,0,1,95.93,69Z"/><path class="cls-15" d="M92.64,70.71a.89.89,0,0,1,.6.26c.2.25.26.55.13.64s-.39,0-.59-.26A.91.91,0,0,1,92.64,70.71Z"/><path class="cls-15" d="M95.58,71.25a.91.91,0,0,1,.65,0c.29.13.47.35.42.5s-.35.18-.65.05A.89.89,0,0,1,95.58,71.25Z"/><path class="cls-15" d="M86.33,67.56a.88.88,0,0,1-.44.49c-.29.12-.58.08-.64-.07s.13-.37.43-.48A.91.91,0,0,1,86.33,67.56Z"/><path class="cls-15" d="M83,68.22a.83.83,0,0,1-.55.32c-.32,0-.59-.09-.59-.27s.24-.31.56-.32A.86.86,0,0,1,83,68.22Z"/><path class="cls-15" d="M83.59,87.69a.9.9,0,0,1-.54.37c-.31,0-.58-.06-.6-.22s.21-.33.53-.37A.85.85,0,0,1,83.59,87.69Z"/><path class="cls-15" d="M87.62,86.37a.87.87,0,0,1-.51.43c-.32.06-.6,0-.63-.18s.2-.34.52-.43A.92.92,0,0,1,87.62,86.37Z"/><path class="cls-15" d="M87.23,88.07a.92.92,0,0,1,.34.56c0,.32-.1.59-.26.6S87,89,87,88.67A.91.91,0,0,1,87.23,88.07Z"/><path class="cls-15" d="M84.7,86.2a.88.88,0,0,1-.44.49c-.29.12-.58.09-.64-.06s.13-.38.43-.49A.92.92,0,0,1,84.7,86.2Z"/><path class="cls-15" d="M81.44,86.12a.94.94,0,0,1-.56.32c-.32,0-.59-.1-.59-.28s.25-.31.56-.32A.87.87,0,0,1,81.44,86.12Z"/><path class="cls-8" d="M101.83,78.3l-.16-.2-.12-.15a3.69,3.69,0,0,0-.2-3.46,7.2,7.2,0,0,0-.2-2.26A10.24,10.24,0,0,0,98.07,67a10.57,10.57,0,0,0-5.5-2.66h0c-2-.31-3.93-.49-5.26-.59a9.8,9.8,0,0,0-9.77,5.89,1,1,0,0,1-.08.19l-.18.47a3.72,3.72,0,0,0-2.31,3.53,7.39,7.39,0,0,0-.8.53A4.28,4.28,0,0,0,72.62,77,3.66,3.66,0,0,0,74,80.16a3.71,3.71,0,0,0,1.71,4.22A10.21,10.21,0,0,0,78,88a10.55,10.55,0,0,0,5.31,3c1.43.33,2.88.59,4.08.78l.77.12a4.11,4.11,0,0,1,0-1c0-.44,0-.87.09-1.31,0,0,0,0,0,0-1.24-.2-2.88-.47-4.47-.82A8.15,8.15,0,0,1,78.65,85l11,1.25A17.8,17.8,0,0,1,91.21,84L77.45,82.48A1.33,1.33,0,0,1,76.28,81V81a3.94,3.94,0,0,0,1-.14l2.24-.66a1.81,1.81,0,0,1,.52-.07l.49.08a2,2,0,0,1,.83.42l1.09,1a4.59,4.59,0,0,0,4.87.74l.92-.45A1.88,1.88,0,0,1,90.1,82l1.06.79a4,4,0,0,0,.8.4,4.58,4.58,0,0,1,1.5-1,.75.75,0,0,1,.26,0l.24-.21a1.88,1.88,0,0,1,.24-.14,2.17,2.17,0,0,1,.35-.15l.13,0a1.07,1.07,0,0,1,.25,0A10.74,10.74,0,0,1,96.12,81a4.05,4.05,0,0,1,1-.54,2.88,2.88,0,0,0-1.54.08L94,81.05a1.61,1.61,0,0,1-1.41-.22l-1.06-.75a4.25,4.25,0,0,0-4.16-.41l-1,.43A2.2,2.2,0,0,1,84,79.73l-1.09-1a4.34,4.34,0,0,0-4-.9l-2.23.65a1.32,1.32,0,0,1-1.62-.91,1.27,1.27,0,0,1,0-.34,1.28,1.28,0,0,1,.49-1,2.92,2.92,0,0,1,.28-.21,3.7,3.7,0,0,0,2.27,1.3h.09l19.54,2.74a3.54,3.54,0,0,0,.86,0l.22,0h0a4.84,4.84,0,0,1,2.16-.52c.45-.07.9-.15,1.36-.2A2.93,2.93,0,0,0,101.83,78.3ZM87.09,66.06c1.29.09,3.23.27,5.11.57a8.05,8.05,0,0,1,6.63,6.12l-.14,0L79.86,70.08A7.42,7.42,0,0,1,87.09,66.06ZM98.15,77.74l-.16,0L78.45,75a1.33,1.33,0,0,1-.61-2.38h0a1.34,1.34,0,0,1,1-.25l19.54,2.74a1.33,1.33,0,0,1-.21,2.66Z"/></g></g></g></g></g></g><text class="cls-22" transform="matrix(0.98, 0.18, -0.18, 0.98, 76.77, 56.43)">Burgeria</text><g class="cls-23"><path class="cls-24" d="M119.25,29.39a25.73,25.73,0,0,0-6.93-1.74l-3.45-.57Q105,26.67,101.22,26c-4.28-.74-8.52-1.69-12.83-2.23-2.15-.27-4.3-.48-6.45-.73s-4.37-.61-6.56-.89a59.86,59.86,0,0,0-6.28-.44,20.19,20.19,0,0,0-5.91.42c3.48,4.42,6.49,9.63,12.24,9.24,3.32-.23,6.43-2.61,9.79-2.12,8,1.18,9.74,15.63,16.83,19.22a7.06,7.06,0,0,0,6.81.11,17.8,17.8,0,0,0,5.42-5.36c2.78-3.8,5.38-8,8.49-11.21.25-.27.53-.52.79-.77A29.06,29.06,0,0,1,119.25,29.39Z"/></g></g></g></svg>